$MeshFormat
2.2 0 8
$EndMeshFormat
$Nodes
512
1 1.65000000e+00 0.00000000e+00 0.00000000e+00
2 1.65000000e+00 0.00000000e+00 0.00000000e+00
3 1.65000000e+00 0.00000000e+00 0.00000000e+00
4 1.65000000e+00 0.00000000e+00 0.00000000e+00
5 1.65000000e+00 0.00000000e+00 0.00000000e+00
6 1.65000000e+00 0.00000000e+00 0.00000000e+00
7 1.65000000e+00 0.00000000e+00 0.00000000e+00
8 1.65000000e+00 0.00000000e+00 0.00000000e+00
9 1.65000000e+00 0.00000000e+00 0.00000000e+00
10 1.65000000e+00 0.00000000e+00 0.00000000e+00
11 1.65000000e+00 0.00000000e+00 0.00000000e+00
12 1.65000000e+00 0.00000000e+00 0.00000000e+00
13 1.65000000e+00 0.00000000e+00 0.00000000e+00
14 1.65000000e+00 0.00000000e+00 0.00000000e+00
15 1.65000000e+00 0.00000000e+00 0.00000000e+00
16 1.65000000e+00 0.00000000e+00 0.00000000e+00
17 1.65000000e+00 0.00000000e+00 0.00000000e+00
18 1.65000000e+00 -0.00000000e+00 0.00000000e+00
19 1.65000000e+00 -0.00000000e+00 0.00000000e+00
20 1.65000000e+00 -0.00000000e+00 0.00000000e+00
21 1.65000000e+00 -0.00000000e+00 0.00000000e+00
22 1.65000000e+00 -0.00000000e+00 0.00000000e+00
23 1.65000000e+00 -0.00000000e+00 0.00000000e+00
24 1.65000000e+00 -0.00000000e+00 0.00000000e+00
25 1.65000000e+00 -0.00000000e+00 0.00000000e+00
26 1.65000000e+00 -0.00000000e+00 0.00000000e+00
27 1.65000000e+00 -0.00000000e+00 0.00000000e+00
28 1.65000000e+00 -0.00000000e+00 0.00000000e+00
29 1.65000000e+00 -0.00000000e+00 0.00000000e+00
30 1.65000000e+00 -0.00000000e+00 0.00000000e+00
31 1.65000000e+00 -0.00000000e+00 0.00000000e+00
32 1.65000000e+00 -0.00000000e+00 0.00000000e+00
33 1.68333333e+00 0.00000000e+00 0.00000000e+00
34 1.68219615e+00 1.20854218e-02 0.00000000e+00
35 1.67890414e+00 2.32442886e-02 0.00000000e+00
36 1.67379329e+00 3.26830388e-02 0.00000000e+00
37 1.66735453e+00 3.98430103e-02 0.00000000e+00
38 1.66015028e+00 4.44504483e-02 0.00000000e+00
39 1.65273011e+00 4.65098800e-02 0.00000000e+00
40 1.64556347e+00 4.62514808e-02 0.00000000e+00
41 1.63900000e+00 4.40524435e-02 0.00000000e+00
42 1.63325855e+00 4.03538947e-02 0.00000000e+00
43 1.62843944e+00 3.55901207e-02 0.00000000e+00
44 1.62455087e+00 3.01391463e-02 0.00000000e+00
45 1.62154071e+00 2.42963435e-02 0.00000000e+00
46 1.61932671e+00 1.82677335e-02 0.00000000e+00
47 1.61782155e+00 1.21774462e-02 0.00000000e+00
48 1.61695114e+00 6.08383212e-03 0.00000000e+00
49 1.61666667e+00 5.71501840e-18 0.00000000e+00
50 1.61695114e+00 -6.08383212e-03 0.00000000e+00
51 1.61782155e+00 -1.21774462e-02 0.00000000e+00
52 1.61932671e+00 -1.82677335e-02 0.00000000e+00
53 1.62154071e+00 -2.42963435e-02 0.00000000e+00
54 1.62455087e+00 -3.01391463e-02 0.00000000e+00
55 1.62843944e+00 -3.55901207e-02 0.00000000e+00
56 1.63325855e+00 -4.03538947e-02 0.00000000e+00
57 1.63900000e+00 -4.40524435e-02 0.00000000e+00
58 1.64556347e+00 -4.62514808e-02 0.00000000e+00
59 1.65273011e+00 -4.65098800e-02 0.00000000e+00
60 1.66015028e+00 -4.44504483e-02 0.00000000e+00
61 1.66735453e+00 -3.98430103e-02 0.00000000e+00
62 1.67379329e+00 -3.26830388e-02 0.00000000e+00
63 1.67890414e+00 -2.32442886e-02 0.00000000e+00
64 1.68219615e+00 -1.20854218e-02 0.00000000e+00
65 1.71666667e+00 0.00000000e+00 0.00000000e+00
66 1.71439230e+00 2.41708437e-02 0.00000000e+00
67 1.70780828e+00 4.64885772e-02 0.00000000e+00
68 1.69758659e+00 6.53660777e-02 0.00000000e+00
69 1.68470906e+00 7.96860207e-02 0.00000000e+00
70 1.67030057e+00 8.89008967e-02 0.00000000e+00
71 1.65546022e+00 9.30197600e-02 0.00000000e+00
72 1.64112694e+00 9.25029615e-02 0.00000000e+00
73 1.62800000e+00 8.81048870e-02 0.00000000e+00
74 1.61651711e+00 8.07077894e-02 0.00000000e+00
75 1.60687888e+00 7.11802414e-02 0.00000000e+00
76 1.59910175e+00 6.02782926e-02 0.00000000e+00
77 1.59308141e+00 4.85926869e-02 0.00000000e+00
78 1.58865342e+00 3.65354670e-02 0.00000000e+00
79 1.58564309e+00 2.43548924e-02 0.00000000e+00
80 1.58390229e+00 1.21676642e-02 0.00000000e+00
81 1.58333333e+00 1.14300368e-17 0.00000000e+00
82 1.58390229e+00 -1.21676642e-02 0.00000000e+00
83 1.58564309e+00 -2.43548924e-02 0.00000000e+00
84 1.58865342e+00 -3.65354670e-02 0.00000000e+00
85 1.59308141e+00 -4.85926869e-02 0.00000000e+00
86 1.59910175e+00 -6.02782926e-02 0.00000000e+00
87 1.60687888e+00 -7.11802414e-02 0.00000000e+00
88 1.61651711e+00 -8.07077894e-02 0.00000000e+00
89 1.62800000e+00 -8.81048870e-02 0.00000000e+00
90 1.64112694e+00 -9.25029615e-02 0.00000000e+00
91 1.65546022e+00 -9.30197600e-02 0.00000000e+00
92 1.67030057e+00 -8.89008967e-02 0.00000000e+00
93 1.68470906e+00 -7.96860207e-02 0.00000000e+00
94 1.69758659e+00 -6.53660777e-02 0.00000000e+00
95 1.70780828e+00 -4.64885772e-02 0.00000000e+00
96 1.71439230e+00 -2.41708437e-02 0.00000000e+00
97 1.75000000e+00 0.00000000e+00 0.00000000e+00
98 1.74658845e+00 3.62562655e-02 0.00000000e+00
99 1.73671242e+00 6.97328659e-02 0.00000000e+00
100 1.72137988e+00 9.80491165e-02 0.00000000e+00
101 1.70206359e+00 1.19529031e-01 0.00000000e+00
102 1.68045085e+00 1.33351345e-01 0.00000000e+00
103 1.65819032e+00 1.39529640e-01 0.00000000e+00
104 1.63669041e+00 1.38754442e-01 0.00000000e+00
105 1.61700000e+00 1.32157330e-01 0.00000000e+00
106 1.59977566e+00 1.21061684e-01 0.00000000e+00
107 1.58531832e+00 1.06770362e-01 0.00000000e+00
108 1.57365262e+00 9.04174390e-02 0.00000000e+00
109 1.56462212e+00 7.28890304e-02 0.00000000e+00
110 1.55798012e+00 5.48032004e-02 0.00000000e+00
111 1.55346464e+00 3.65323386e-02 0.00000000e+00
112 1.55085343e+00 1.82514964e-02 0.00000000e+00
113 1.55000000e+00 1.71450552e-17 0.00000000e+00
114 1.55085343e+00 -1.82514964e-02 0.00000000e+00
115 1.55346464e+00 -3.65323386e-02 0.00000000e+00
116 1.55798012e+00 -5.48032004e-02 0.00000000e+00
117 1.56462212e+00 -7.28890304e-02 0.00000000e+00
118 1.57365262e+00 -9.04174390e-02 0.00000000e+00
119 1.58531832e+00 -1.06770362e-01 0.00000000e+00
120 1.59977566e+00 -1.21061684e-01 0.00000000e+00
121 1.61700000e+00 -1.32157330e-01 0.00000000e+00
122 1.63669041e+00 -1.38754442e-01 0.00000000e+00
123 1.65819032e+00 -1.39529640e-01 0.00000000e+00
124 1.68045085e+00 -1.33351345e-01 0.00000000e+00
125 1.70206359e+00 -1.19529031e-01 0.00000000e+00
126 1.72137988e+00 -9.80491165e-02 0.00000000e+00
127 1.73671242e+00 -6.97328659e-02 0.00000000e+00
128 1.74658845e+00 -3.62562655e-02 0.00000000e+00
129 1.78333333e+00 0.00000000e+00 0.00000000e+00
130 1.77878460e+00 4.83416874e-02 0.00000000e+00
131 1.76561657e+00 9.29771545e-02 0.00000000e+00
132 1.74517317e+00 1.30732155e-01 0.00000000e+00
133 1.71941812e+00 1.59372041e-01 0.00000000e+00
134 1.69060114e+00 1.77801793e-01 0.00000000e+00
135 1.66092043e+00 1.86039520e-01 0.00000000e+00
136 1.63225388e+00 1.85005923e-01 0.00000000e+00
137 1.60600000e+00 1.76209774e-01 0.00000000e+00
138 1.58303422e+00 1.61415579e-01 0.00000000e+00
139 1.56375776e+00 1.42360483e-01 0.00000000e+00
140 1.54820350e+00 1.20556585e-01 0.00000000e+00
141 1.53616283e+00 9.71853738e-02 0.00000000e+00
142 1.52730683e+00 7.30709339e-02 0.00000000e+00
143 1.52128619e+00 4.87097848e-02 0.00000000e+00
144 1.51780457e+00 2.43353285e-02 0.00000000e+00
145 1.51666667e+00 2.28600736e-17 0.00000000e+00
146 1.51780457e+00 -2.43353285e-02 0.00000000e+00
147 1.52128619e+00 -4.87097848e-02 0.00000000e+00
148 1.52730683e+00 -7.30709339e-02 0.00000000e+00
149 1.53616283e+00 -9.71853738e-02 0.00000000e+00
150 1.54820350e+00 -1.20556585e-01 0.00000000e+00
151 1.56375776e+00 -1.42360483e-01 0.00000000e+00
152 1.58303422e+00 -1.61415579e-01 0.00000000e+00
153 1.60600000e+00 -1.76209774e-01 0.00000000e+00
154 1.63225388e+00 -1.85005923e-01 0.00000000e+00
155 1.66092043e+00 -1.86039520e-01 0.00000000e+00
156 1.69060114e+00 -1.77801793e-01 0.00000000e+00
157 1.71941812e+00 -1.59372041e-01 0.00000000e+00
158 1.74517317e+00 -1.30732155e-01 0.00000000e+00
159 1.76561657e+00 -9.29771545e-02 0.00000000e+00
160 1.77878460e+00 -4.83416874e-02 0.00000000e+00
161 1.81666667e+00 0.00000000e+00 0.00000000e+00
162 1.81098075e+00 6.04271092e-02 0.00000000e+00
163 1.79452071e+00 1.16221443e-01 0.00000000e+00
164 1.76896646e+00 1.63415194e-01 0.00000000e+00
165 1.73677266e+00 1.99215052e-01 0.00000000e+00
166 1.70075142e+00 2.22252242e-01 0.00000000e+00
167 1.66365054e+00 2.32549400e-01 0.00000000e+00
168 1.62781734e+00 2.31257404e-01 0.00000000e+00
169 1.59500000e+00 2.20262217e-01 0.00000000e+00
170 1.56629277e+00 2.01769473e-01 0.00000000e+00
171 1.54219721e+00 1.77950604e-01 0.00000000e+00
172 1.52275437e+00 1.50695732e-01 0.00000000e+00
173 1.50770353e+00 1.21481717e-01 0.00000000e+00
174 1.49663354e+00 9.13386674e-02 0.00000000e+00
175 1.48910773e+00 6.08872310e-02 0.00000000e+00
176 1.48475572e+00 3.04191606e-02 0.00000000e+00
177 1.48333333e+00 2.85750920e-17 0.00000000e+00
178 1.48475572e+00 -3.04191606e-02 0.00000000e+00
179 1.48910773e+00 -6.08872310e-02 0.00000000e+00
180 1.49663354e+00 -9.13386674e-02 0.00000000e+00
181 1.50770353e+00 -1.21481717e-01 0.00000000e+00
182 1.52275437e+00 -1.50695732e-01 0.00000000e+00
183 1.54219721e+00 -1.77950604e-01 0.00000000e+00
184 1.56629277e+00 -2.01769473e-01 0.00000000e+00
185 1.59500000e+00 -2.20262217e-01 0.00000000e+00
186 1.62781734e+00 -2.31257404e-01 0.00000000e+00
187 1.66365054e+00 -2.32549400e-01 0.00000000e+00
188 1.70075142e+00 -2.22252242e-01 0.00000000e+00
189 1.73677266e+00 -1.99215052e-01 0.00000000e+00
190 1.76896646e+00 -1.63415194e-01 0.00000000e+00
191 1.79452071e+00 -1.16221443e-01 0.00000000e+00
192 1.81098075e+00 -6.04271092e-02 0.00000000e+00
193 1.85000000e+00 0.00000000e+00 0.00000000e+00
194 1.84317689e+00 7.25125310e-02 0.00000000e+00
195 1.82342485e+00 1.39465732e-01 0.00000000e+00
196 1.79275976e+00 1.96098233e-01 0.00000000e+00
197 1.75412719e+00 2.39058062e-01 0.00000000e+00
198 1.71090171e+00 2.66702690e-01 0.00000000e+00
199 1.66638065e+00 2.79059280e-01 0.00000000e+00
200 1.62338081e+00 2.77508885e-01 0.00000000e+00
201 1.58400000e+00 2.64314661e-01 0.00000000e+00
202 1.54955133e+00 2.42123368e-01 0.00000000e+00
203 1.52063665e+00 2.13540724e-01 0.00000000e+00
204 1.49730525e+00 1.80834878e-01 0.00000000e+00
205 1.47924424e+00 1.45778061e-01 0.00000000e+00
206 1.46596025e+00 1.09606401e-01 0.00000000e+00
207 1.45692928e+00 7.30646773e-02 0.00000000e+00
208 1.45170686e+00 3.65029927e-02 0.00000000e+00
209 1.45000000e+00 3.42901104e-17 0.00000000e+00
210 1.45170686e+00 -3.65029927e-02 0.00000000e+00
211 1.45692928e+00 -7.30646773e-02 0.00000000e+00
212 1.46596025e+00 -1.09606401e-01 0.00000000e+00
213 1.47924424e+00 -1.45778061e-01 0.00000000e+00
214 1.49730525e+00 -1.80834878e-01 0.00000000e+00
215 1.52063665e+00 -2.13540724e-01 0.00000000e+00
216 1.54955133e+00 -2.42123368e-01 0.00000000e+00
217 1.58400000e+00 -2.64314661e-01 0.00000000e+00
218 1.62338081e+00 -2.77508885e-01 0.00000000e+00
219 1.66638065e+00 -2.79059280e-01 0.00000000e+00
220 1.71090171e+00 -2.66702690e-01 0.00000000e+00
221 1.75412719e+00 -2.39058062e-01 0.00000000e+00
222 1.79275976e+00 -1.96098233e-01 0.00000000e+00
223 1.82342485e+00 -1.39465732e-01 0.00000000e+00
224 1.84317689e+00 -7.25125310e-02 0.00000000e+00
225 1.88333333e+00 0.00000000e+00 0.00000000e+00
226 1.87537304e+00 8.45979529e-02 0.00000000e+00
227 1.85232899e+00 1.62710020e-01 0.00000000e+00
228 1.81655305e+00 2.28781272e-01 0.00000000e+00
229 1.77148172e+00 2.78901072e-01 0.00000000e+00
230 1.72105199e+00 3.11153138e-01 0.00000000e+00
231 1.66911076e+00 3.25569160e-01 0.00000000e+00
232 1.61894428e+00 3.23760365e-01 0.00000000e+00
233 1.57300000e+00 3.08367104e-01 0.00000000e+00
234 1.53280988e+00 2.82477263e-01 0.00000000e+00
235 1.49907609e+00 2.49130845e-01 0.00000000e+00
236 1.47185612e+00 2.10974024e-01 0.00000000e+00
237 1.45078495e+00 1.70074404e-01 0.00000000e+00
238 1.43528695e+00 1.27874134e-01 0.00000000e+00
239 1.42475083e+00 8.52421235e-02 0.00000000e+00
240 1.41865800e+00 4.25868249e-02 0.00000000e+00
241 1.41666667e+00 4.00051288e-17 0.00000000e+00
242 1.41865800e+00 -4.25868249e-02 0.00000000e+00
243 1.42475083e+00 -8.52421235e-02 0.00000000e+00
244 1.43528695e+00 -1.27874134e-01 0.00000000e+00
245 1.45078495e+00 -1.70074404e-01 0.00000000e+00
246 1.47185612e+00 -2.10974024e-01 0.00000000e+00
247 1.49907609e+00 -2.49130845e-01 0.00000000e+00
248 1.53280988e+00 -2.82477263e-01 0.00000000e+00
249 1.57300000e+00 -3.08367104e-01 0.00000000e+00
250 1.61894428e+00 -3.23760365e-01 0.00000000e+00
251 1.66911076e+00 -3.25569160e-01 0.00000000e+00
252 1.72105199e+00 -3.11153138e-01 0.00000000e+00
253 1.77148172e+00 -2.78901072e-01 0.00000000e+00
254 1.81655305e+00 -2.28781272e-01 0.00000000e+00
255 1.85232899e+00 -1.62710020e-01 0.00000000e+00
256 1.87537304e+00 -8.45979529e-02 0.00000000e+00
257 1.91666667e+00 0.00000000e+00 0.00000000e+00
258 1.90756919e+00 9.66833747e-02 0.00000000e+00
259 1.88123313e+00 1.85954309e-01 0.00000000e+00
260 1.84034634e+00 2.61464311e-01 0.00000000e+00
261 1.78883625e+00 3.18744083e-01 0.00000000e+00
262 1.73120228e+00 3.55603587e-01 0.00000000e+00
263 1.67184087e+00 3.72079040e-01 0.00000000e+00
264 1.61450775e+00 3.70011846e-01 0.00000000e+00
265 1.56200000e+00 3.52419548e-01 0.00000000e+00
266 1.51606844e+00 3.22831157e-01 0.00000000e+00
267 1.47751553e+00 2.84720966e-01 0.00000000e+00
268 1.44640700e+00 2.41113171e-01 0.00000000e+00
269 1.42232566e+00 1.94370748e-01 0.00000000e+00
270 1.40461366e+00 1.46141868e-01 0.00000000e+00
271 1.39257237e+00 9.74195697e-02 0.00000000e+00
272 1.38560915e+00 4.86706570e-02 0.00000000e+00
273 1.38333333e+00 4.57201472e-17 0.00000000e+00
274 1.38560915e+00 -4.86706570e-02 0.00000000e+00
275 1.39257237e+00 -9.74195697e-02 0.00000000e+00
276 1.40461366e+00 -1.46141868e-01 0.00000000e+00
277 1.42232566e+00 -1.94370748e-01 0.00000000e+00
278 1.44640700e+00 -2.41113171e-01 0.00000000e+00
279 1.47751553e+00 -2.84720966e-01 0.00000000e+00
280 1.51606844e+00 -3.22831157e-01 0.00000000e+00
281 1.56200000e+00 -3.52419548e-01 0.00000000e+00
282 1.61450775e+00 -3.70011846e-01 0.00000000e+00
283 1.67184087e+00 -3.72079040e-01 0.00000000e+00
284 1.73120228e+00 -3.55603587e-01 0.00000000e+00
285 1.78883625e+00 -3.18744083e-01 0.00000000e+00
286 1.84034634e+00 -2.61464311e-01 0.00000000e+00
287 1.88123313e+00 -1.85954309e-01 0.00000000e+00
288 1.90756919e+00 -9.66833747e-02 0.00000000e+00
289 1.95000000e+00 0.00000000e+00 0.00000000e+00
290 1.93976534e+00 1.08768797e-01 0.00000000e+00
291 1.91013727e+00 2.09198598e-01 0.00000000e+00
292 1.86413964e+00 2.94147349e-01 0.00000000e+00
293 1.80619078e+00 3.58587093e-01 0.00000000e+00
294 1.74135256e+00 4.00054035e-01 0.00000000e+00
295 1.67457097e+00 4.18588920e-01 0.00000000e+00
296 1.61007122e+00 4.16263327e-01 0.00000000e+00
297 1.55100000e+00 3.96471991e-01 0.00000000e+00
298 1.49932699e+00 3.63185052e-01 0.00000000e+00
299 1.45595497e+00 3.20311086e-01 0.00000000e+00
300 1.42095787e+00 2.71252317e-01 0.00000000e+00
301 1.39386636e+00 2.18667091e-01 0.00000000e+00
302 1.37394037e+00 1.64409601e-01 0.00000000e+00
303 1.36039392e+00 1.09597016e-01 0.00000000e+00
304 1.35256029e+00 5.47544891e-02 0.00000000e+00
305 1.35000000e+00 5.14351656e-17 0.00000000e+00
306 1.35256029e+00 -5.47544891e-02 0.00000000e+00
307 1.36039392e+00 -1.09597016e-01 0.00000000e+00
308 1.37394037e+00 -1.64409601e-01 0.00000000e+00
309 1.39386636e+00 -2.18667091e-01 0.00000000e+00
310 1.42095787e+00 -2.71252317e-01 0.00000000e+00
311 1.45595497e+00 -3.20311086e-01 0.00000000e+00
312 1.49932699e+00 -3.63185052e-01 0.00000000e+00
313 1.55100000e+00 -3.96471991e-01 0.00000000e+00
314 1.61007122e+00 -4.16263327e-01 0.00000000e+00
315 1.67457097e+00 -4.18588920e-01 0.00000000e+00
316 1.74135256e+00 -4.00054035e-01 0.00000000e+00
317 1.80619078e+00 -3.58587093e-01 0.00000000e+00
318 1.86413964e+00 -2.94147349e-01 0.00000000e+00
319 1.91013727e+00 -2.09198598e-01 0.00000000e+00
320 1.93976534e+00 -1.08768797e-01 0.00000000e+00
321 1.98333333e+00 0.00000000e+00 0.00000000e+00
322 1.97196149e+00 1.20854218e-01 0.00000000e+00
323 1.93904142e+00 2.32442886e-01 0.00000000e+00
324 1.88793293e+00 3.26830388e-01 0.00000000e+00
325 1.82354531e+00 3.98430103e-01 0.00000000e+00
326 1.75150285e+00 4.44504483e-01 0.00000000e+00
327 1.67730108e+00 4.65098800e-01 0.00000000e+00
328 1.60563469e+00 4.62514808e-01 0.00000000e+00
329 1.54000000e+00 4.40524435e-01 0.00000000e+00
330 1.48258554e+00 4.03538947e-01 0.00000000e+00
331 1.43439441e+00 3.55901207e-01 0.00000000e+00
332 1.39550875e+00 3.01391463e-01 0.00000000e+00
333 1.36540707e+00 2.42963435e-01 0.00000000e+00
334 1.34326708e+00 1.82677335e-01 0.00000000e+00
335 1.32821547e+00 1.21774462e-01 0.00000000e+00
336 1.31951143e+00 6.08383212e-02 0.00000000e+00
337 1.31666667e+00 5.71501840e-17 0.00000000e+00
338 1.31951143e+00 -6.08383212e-02 0.00000000e+00
339 1.32821547e+00 -1.21774462e-01 0.00000000e+00
340 1.34326708e+00 -1.82677335e-01 0.00000000e+00
341 1.36540707e+00 -2.42963435e-01 0.00000000e+00
342 1.39550875e+00 -3.01391463e-01 0.00000000e+00
343 1.43439441e+00 -3.55901207e-01 0.00000000e+00
344 1.48258554e+00 -4.03538947e-01 0.00000000e+00
345 1.54000000e+00 -4.40524435e-01 0.00000000e+00
346 1.60563469e+00 -4.62514808e-01 0.00000000e+00
347 1.67730108e+00 -4.65098800e-01 0.00000000e+00
348 1.75150285e+00 -4.44504483e-01 0.00000000e+00
349 1.82354531e+00 -3.98430103e-01 0.00000000e+00
350 1.88793293e+00 -3.26830388e-01 0.00000000e+00
351 1.93904142e+00 -2.32442886e-01 0.00000000e+00
352 1.97196149e+00 -1.20854218e-01 0.00000000e+00
353 2.01666667e+00 0.00000000e+00 0.00000000e+00
354 2.00415764e+00 1.32939640e-01 0.00000000e+00
355 1.96794556e+00 2.55687175e-01 0.00000000e+00
356 1.91172622e+00 3.59513427e-01 0.00000000e+00
357 1.84089984e+00 4.38273114e-01 0.00000000e+00
358 1.76165313e+00 4.88954932e-01 0.00000000e+00
359 1.68003119e+00 5.11608680e-01 0.00000000e+00
360 1.60119816e+00 5.08766288e-01 0.00000000e+00
361 1.52900000e+00 4.84576878e-01 0.00000000e+00
362 1.46584410e+00 4.43892841e-01 0.00000000e+00
363 1.41283385e+00 3.91491328e-01 0.00000000e+00
364 1.37005962e+00 3.31530610e-01 0.00000000e+00
365 1.33694778e+00 2.67259778e-01 0.00000000e+00
366 1.31259378e+00 2.00945068e-01 0.00000000e+00
367 1.29603702e+00 1.33951908e-01 0.00000000e+00
368 1.28646258e+00 6.69221534e-02 0.00000000e+00
369 1.28333333e+00 6.28652024e-17 0.00000000e+00
370 1.28646258e+00 -6.69221534e-02 0.00000000e+00
371 1.29603702e+00 -1.33951908e-01 0.00000000e+00
372 1.31259378e+00 -2.00945068e-01 0.00000000e+00
373 1.33694778e+00 -2.67259778e-01 0.00000000e+00
374 1.37005962e+00 -3.31530610e-01 0.00000000e+00
375 1.41283385e+00 -3.91491328e-01 0.00000000e+00
376 1.46584410e+00 -4.43892841e-01 0.00000000e+00
377 1.52900000e+00 -4.84576878e-01 0.00000000e+00
378 1.60119816e+00 -5.08766288e-01 0.00000000e+00
379 1.68003119e+00 -5.11608680e-01 0.00000000e+00
380 1.76165313e+00 -4.88954932e-01 0.00000000e+00
381 1.84089984e+00 -4.38273114e-01 0.00000000e+00
382 1.91172622e+00 -3.59513427e-01 0.00000000e+00
383 1.96794556e+00 -2.55687175e-01 0.00000000e+00
384 2.00415764e+00 -1.32939640e-01 0.00000000e+00
385 2.05000000e+00 0.00000000e+00 0.00000000e+00
386 2.03635379e+00 1.45025062e-01 0.00000000e+00
387 1.99684970e+00 2.78931463e-01 0.00000000e+00
388 1.93551952e+00 3.92196466e-01 0.00000000e+00
389 1.85825437e+00 4.78116124e-01 0.00000000e+00
390 1.77180341e+00 5.33405380e-01 0.00000000e+00
391 1.68276130e+00 5.58118560e-01 0.00000000e+00
392 1.59676163e+00 5.55017769e-01 0.00000000e+00
393 1.51800000e+00 5.28629322e-01 0.00000000e+00
394 1.44910265e+00 4.84246736e-01 0.00000000e+00
395 1.39127329e+00 4.27081449e-01 0.00000000e+00
396 1.34461050e+00 3.61669756e-01 0.00000000e+00
397 1.30848848e+00 2.91556122e-01 0.00000000e+00
398 1.28192049e+00 2.19212802e-01 0.00000000e+00
399 1.26385856e+00 1.46129355e-01 0.00000000e+00
400 1.25341372e+00 7.30059855e-02 0.00000000e+00
401 1.25000000e+00 6.85802208e-17 0.00000000e+00
402 1.25341372e+00 -7.30059855e-02 0.00000000e+00
403 1.26385856e+00 -1.46129355e-01 0.00000000e+00
404 1.28192049e+00 -2.19212802e-01 0.00000000e+00
405 1.30848848e+00 -2.91556122e-01 0.00000000e+00
406 1.34461050e+00 -3.61669756e-01 0.00000000e+00
407 1.39127329e+00 -4.27081449e-01 0.00000000e+00
408 1.44910265e+00 -4.84246736e-01 0.00000000e+00
409 1.51800000e+00 -5.28629322e-01 0.00000000e+00
410 1.59676163e+00 -5.55017769e-01 0.00000000e+00
411 1.68276130e+00 -5.58118560e-01 0.00000000e+00
412 1.77180341e+00 -5.33405380e-01 0.00000000e+00
413 1.85825437e+00 -4.78116124e-01 0.00000000e+00
414 1.93551952e+00 -3.92196466e-01 0.00000000e+00
415 1.99684970e+00 -2.78931463e-01 0.00000000e+00
416 2.03635379e+00 -1.45025062e-01 0.00000000e+00
417 2.08333333e+00 0.00000000e+00 0.00000000e+00
418 2.06854994e+00 1.57110484e-01 0.00000000e+00
419 2.02575384e+00 3.02175752e-01 0.00000000e+00
420 1.95931281e+00 4.24879505e-01 0.00000000e+00
421 1.87560890e+00 5.17959134e-01 0.00000000e+00
422 1.78195370e+00 5.77855828e-01 0.00000000e+00
423 1.68549141e+00 6.04628440e-01 0.00000000e+00
424 1.59232510e+00 6.01269250e-01 0.00000000e+00
425 1.50700000e+00 5.72681765e-01 0.00000000e+00
426 1.43236121e+00 5.24600631e-01 0.00000000e+00
427 1.36971274e+00 4.62671569e-01 0.00000000e+00
428 1.31916137e+00 3.91808902e-01 0.00000000e+00
429 1.28002919e+00 3.15852465e-01 0.00000000e+00
430 1.25124720e+00 2.37480535e-01 0.00000000e+00
431 1.23168011e+00 1.58306801e-01 0.00000000e+00
432 1.22036486e+00 7.90898176e-02 0.00000000e+00
433 1.21666667e+00 7.42952391e-17 0.00000000e+00
434 1.22036486e+00 -7.90898176e-02 0.00000000e+00
435 1.23168011e+00 -1.58306801e-01 0.00000000e+00
436 1.25124720e+00 -2.37480535e-01 0.00000000e+00
437 1.28002919e+00 -3.15852465e-01 0.00000000e+00
438 1.31916137e+00 -3.91808902e-01 0.00000000e+00
439 1.36971274e+00 -4.62671569e-01 0.00000000e+00
440 1.43236121e+00 -5.24600631e-01 0.00000000e+00
441 1.50700000e+00 -5.72681765e-01 0.00000000e+00
442 1.59232510e+00 -6.01269250e-01 0.00000000e+00
443 1.68549141e+00 -6.04628440e-01 0.00000000e+00
444 1.78195370e+00 -5.77855828e-01 0.00000000e+00
445 1.87560890e+00 -5.17959134e-01 0.00000000e+00
446 1.95931281e+00 -4.24879505e-01 0.00000000e+00
447 2.02575384e+00 -3.02175752e-01 0.00000000e+00
448 2.06854994e+00 -1.57110484e-01 0.00000000e+00
449 2.11666667e+00 0.00000000e+00 0.00000000e+00
450 2.10074609e+00 1.69195906e-01 0.00000000e+00
451 2.05465798e+00 3.25420041e-01 0.00000000e+00
452 1.98310610e+00 4.57562544e-01 0.00000000e+00
453 1.89296343e+00 5.57802145e-01 0.00000000e+00
454 1.79210398e+00 6.22306277e-01 0.00000000e+00
455 1.68822151e+00 6.51138320e-01 0.00000000e+00
456 1.58788856e+00 6.47520731e-01 0.00000000e+00
457 1.49600000e+00 6.16734209e-01 0.00000000e+00
458 1.41561976e+00 5.64954525e-01 0.00000000e+00
459 1.34815218e+00 4.98261690e-01 0.00000000e+00
460 1.29371225e+00 4.21948049e-01 0.00000000e+00
461 1.25156990e+00 3.40148808e-01 0.00000000e+00
462 1.22057391e+00 2.55748269e-01 0.00000000e+00
463 1.19950166e+00 1.70484247e-01 0.00000000e+00
464 1.18731601e+00 8.51736497e-02 0.00000000e+00
465 1.18333333e+00 8.00102575e-17 0.00000000e+00
466 1.18731601e+00 -8.51736497e-02 0.00000000e+00
467 1.19950166e+00 -1.70484247e-01 0.00000000e+00
468 1.22057391e+00 -2.55748269e-01 0.00000000e+00
469 1.25156990e+00 -3.40148808e-01 0.00000000e+00
470 1.29371225e+00 -4.21948049e-01 0.00000000e+00
471 1.34815218e+00 -4.98261690e-01 0.00000000e+00
472 1.41561976e+00 -5.64954525e-01 0.00000000e+00
473 1.49600000e+00 -6.16734209e-01 0.00000000e+00
474 1.58788856e+00 -6.47520731e-01 0.00000000e+00
475 1.68822151e+00 -6.51138320e-01 0.00000000e+00
476 1.79210398e+00 -6.22306277e-01 0.00000000e+00
477 1.89296343e+00 -5.57802145e-01 0.00000000e+00
478 1.98310610e+00 -4.57562544e-01 0.00000000e+00
479 2.05465798e+00 -3.25420041e-01 0.00000000e+00
480 2.10074609e+00 -1.69195906e-01 0.00000000e+00
481 2.15000000e+00 0.00000000e+00 0.00000000e+00
482 2.13294224e+00 1.81281328e-01 0.00000000e+00
483 2.08356212e+00 3.48664329e-01 0.00000000e+00
484 2.00689939e+00 4.90245582e-01 0.00000000e+00
485 1.91031797e+00 5.97645155e-01 0.00000000e+00
486 1.80225427e+00 6.66756725e-01 0.00000000e+00
487 1.69095162e+00 6.97648200e-01 0.00000000e+00
488 1.58345203e+00 6.93772211e-01 0.00000000e+00
489 1.48500000e+00 6.60786652e-01 0.00000000e+00
490 1.39887832e+00 6.05308420e-01 0.00000000e+00
491 1.32659162e+00 5.33851811e-01 0.00000000e+00
492 1.26826312e+00 4.52087195e-01 0.00000000e+00
493 1.22311060e+00 3.64445152e-01 0.00000000e+00
494 1.18990061e+00 2.74016002e-01 0.00000000e+00
495 1.16732320e+00 1.82661693e-01 0.00000000e+00
496 1.15426715e+00 9.12574818e-02 0.00000000e+00
497 1.15000000e+00 8.57252759e-17 0.00000000e+00
498 1.15426715e+00 -9.12574818e-02 0.00000000e+00
499 1.16732320e+00 -1.82661693e-01 0.00000000e+00
500 1.18990061e+00 -2.74016002e-01 0.00000000e+00
501 1.22311060e+00 -3.64445152e-01 0.00000000e+00
502 1.26826312e+00 -4.52087195e-01 0.00000000e+00
503 1.32659162e+00 -5.33851811e-01 0.00000000e+00
504 1.39887832e+00 -6.05308420e-01 0.00000000e+00
505 1.48500000e+00 -6.60786652e-01 0.00000000e+00
506 1.58345203e+00 -6.93772211e-01 0.00000000e+00
507 1.69095162e+00 -6.97648200e-01 0.00000000e+00
508 1.80225427e+00 -6.66756725e-01 0.00000000e+00
509 1.91031797e+00 -5.97645155e-01 0.00000000e+00
510 2.00689939e+00 -4.90245582e-01 0.00000000e+00
511 2.08356212e+00 -3.48664329e-01 0.00000000e+00
512 2.13294224e+00 -1.81281328e-01 0.00000000e+00
$EndNodes
$Elements
992
1 1 2 0 0 1 2
2 1 2 0 0 2 3
3 1 2 0 0 3 4
4 1 2 0 0 4 5
5 1 2 0 0 5 6
6 1 2 0 0 6 7
7 1 2 0 0 7 8
8 1 2 0 0 8 9
9 1 2 0 0 9 10
10 1 2 0 0 10 11
11 1 2 0 0 11 12
12 1 2 0 0 12 13
13 1 2 0 0 13 14
14 1 2 0 0 14 15
15 1 2 0 0 15 16
16 1 2 0 0 16 17
17 1 2 0 0 17 18
18 1 2 0 0 18 19
19 1 2 0 0 19 20
20 1 2 0 0 20 21
21 1 2 0 0 21 22
22 1 2 0 0 22 23
23 1 2 0 0 23 24
24 1 2 0 0 24 25
25 1 2 0 0 25 26
26 1 2 0 0 26 27
27 1 2 0 0 27 28
28 1 2 0 0 28 29
29 1 2 0 0 29 30
30 1 2 0 0 30 31
31 1 2 0 0 31 32
32 1 2 0 0 32 1
33 1 2 0 0 33 34
34 1 2 0 0 34 35
35 1 2 0 0 35 36
36 1 2 0 0 36 37
37 1 2 0 0 37 38
38 1 2 0 0 38 39
39 1 2 0 0 39 40
40 1 2 0 0 40 41
41 1 2 0 0 41 42
42 1 2 0 0 42 43
43 1 2 0 0 43 44
44 1 2 0 0 44 45
45 1 2 0 0 45 46
46 1 2 0 0 46 47
47 1 2 0 0 47 48
48 1 2 0 0 48 49
49 1 2 0 0 49 50
50 1 2 0 0 50 51
51 1 2 0 0 51 52
52 1 2 0 0 52 53
53 1 2 0 0 53 54
54 1 2 0 0 54 55
55 1 2 0 0 55 56
56 1 2 0 0 56 57
57 1 2 0 0 57 58
58 1 2 0 0 58 59
59 1 2 0 0 59 60
60 1 2 0 0 60 61
61 1 2 0 0 61 62
62 1 2 0 0 62 63
63 1 2 0 0 63 64
64 1 2 0 0 64 33
65 1 2 0 0 65 66
66 1 2 0 0 66 67
67 1 2 0 0 67 68
68 1 2 0 0 68 69
69 1 2 0 0 69 70
70 1 2 0 0 70 71
71 1 2 0 0 71 72
72 1 2 0 0 72 73
73 1 2 0 0 73 74
74 1 2 0 0 74 75
75 1 2 0 0 75 76
76 1 2 0 0 76 77
77 1 2 0 0 77 78
78 1 2 0 0 78 79
79 1 2 0 0 79 80
80 1 2 0 0 80 81
81 1 2 0 0 81 82
82 1 2 0 0 82 83
83 1 2 0 0 83 84
84 1 2 0 0 84 85
85 1 2 0 0 85 86
86 1 2 0 0 86 87
87 1 2 0 0 87 88
88 1 2 0 0 88 89
89 1 2 0 0 89 90
90 1 2 0 0 90 91
91 1 2 0 0 91 92
92 1 2 0 0 92 93
93 1 2 0 0 93 94
94 1 2 0 0 94 95
95 1 2 0 0 95 96
96 1 2 0 0 96 65
97 1 2 0 0 97 98
98 1 2 0 0 98 99
99 1 2 0 0 99 100
100 1 2 0 0 100 101
101 1 2 0 0 101 102
102 1 2 0 0 102 103
103 1 2 0 0 103 104
104 1 2 0 0 104 105
105 1 2 0 0 105 106
106 1 2 0 0 106 107
107 1 2 0 0 107 108
108 1 2 0 0 108 109
109 1 2 0 0 109 110
110 1 2 0 0 110 111
111 1 2 0 0 111 112
112 1 2 0 0 112 113
113 1 2 0 0 113 114
114 1 2 0 0 114 115
115 1 2 0 0 115 116
116 1 2 0 0 116 117
117 1 2 0 0 117 118
118 1 2 0 0 118 119
119 1 2 0 0 119 120
120 1 2 0 0 120 121
121 1 2 0 0 121 122
122 1 2 0 0 122 123
123 1 2 0 0 123 124
124 1 2 0 0 124 125
125 1 2 0 0 125 126
126 1 2 0 0 126 127
127 1 2 0 0 127 128
128 1 2 0 0 128 97
129 1 2 0 0 129 130
130 1 2 0 0 130 131
131 1 2 0 0 131 132
132 1 2 0 0 132 133
133 1 2 0 0 133 134
134 1 2 0 0 134 135
135 1 2 0 0 135 136
136 1 2 0 0 136 137
137 1 2 0 0 137 138
138 1 2 0 0 138 139
139 1 2 0 0 139 140
140 1 2 0 0 140 141
141 1 2 0 0 141 142
142 1 2 0 0 142 143
143 1 2 0 0 143 144
144 1 2 0 0 144 145
145 1 2 0 0 145 146
146 1 2 0 0 146 147
147 1 2 0 0 147 148
148 1 2 0 0 148 149
149 1 2 0 0 149 150
150 1 2 0 0 150 151
151 1 2 0 0 151 152
152 1 2 0 0 152 153
153 1 2 0 0 153 154
154 1 2 0 0 154 155
155 1 2 0 0 155 156
156 1 2 0 0 156 157
157 1 2 0 0 157 158
158 1 2 0 0 158 159
159 1 2 0 0 159 160
160 1 2 0 0 160 129
161 1 2 0 0 161 162
162 1 2 0 0 162 163
163 1 2 0 0 163 164
164 1 2 0 0 164 165
165 1 2 0 0 165 166
166 1 2 0 0 166 167
167 1 2 0 0 167 168
168 1 2 0 0 168 169
169 1 2 0 0 169 170
170 1 2 0 0 170 171
171 1 2 0 0 171 172
172 1 2 0 0 172 173
173 1 2 0 0 173 174
174 1 2 0 0 174 175
175 1 2 0 0 175 176
176 1 2 0 0 176 177
177 1 2 0 0 177 178
178 1 2 0 0 178 179
179 1 2 0 0 179 180
180 1 2 0 0 180 181
181 1 2 0 0 181 182
182 1 2 0 0 182 183
183 1 2 0 0 183 184
184 1 2 0 0 184 185
185 1 2 0 0 185 186
186 1 2 0 0 186 187
187 1 2 0 0 187 188
188 1 2 0 0 188 189
189 1 2 0 0 189 190
190 1 2 0 0 190 191
191 1 2 0 0 191 192
192 1 2 0 0 192 161
193 1 2 0 0 193 194
194 1 2 0 0 194 195
195 1 2 0 0 195 196
196 1 2 0 0 196 197
197 1 2 0 0 197 198
198 1 2 0 0 198 199
199 1 2 0 0 199 200
200 1 2 0 0 200 201
201 1 2 0 0 201 202
202 1 2 0 0 202 203
203 1 2 0 0 203 204
204 1 2 0 0 204 205
205 1 2 0 0 205 206
206 1 2 0 0 206 207
207 1 2 0 0 207 208
208 1 2 0 0 208 209
209 1 2 0 0 209 210
210 1 2 0 0 210 211
211 1 2 0 0 211 212
212 1 2 0 0 212 213
213 1 2 0 0 213 214
214 1 2 0 0 214 215
215 1 2 0 0 215 216
216 1 2 0 0 216 217
217 1 2 0 0 217 218
218 1 2 0 0 218 219
219 1 2 0 0 219 220
220 1 2 0 0 220 221
221 1 2 0 0 221 222
222 1 2 0 0 222 223
223 1 2 0 0 223 224
224 1 2 0 0 224 193
225 1 2 0 0 225 226
226 1 2 0 0 226 227
227 1 2 0 0 227 228
228 1 2 0 0 228 229
229 1 2 0 0 229 230
230 1 2 0 0 230 231
231 1 2 0 0 231 232
232 1 2 0 0 232 233
233 1 2 0 0 233 234
234 1 2 0 0 234 235
235 1 2 0 0 235 236
236 1 2 0 0 236 237
237 1 2 0 0 237 238
238 1 2 0 0 238 239
239 1 2 0 0 239 240
240 1 2 0 0 240 241
241 1 2 0 0 241 242
242 1 2 0 0 242 243
243 1 2 0 0 243 244
244 1 2 0 0 244 245
245 1 2 0 0 245 246
246 1 2 0 0 246 247
247 1 2 0 0 247 248
248 1 2 0 0 248 249
249 1 2 0 0 249 250
250 1 2 0 0 250 251
251 1 2 0 0 251 252
252 1 2 0 0 252 253
253 1 2 0 0 253 254
254 1 2 0 0 254 255
255 1 2 0 0 255 256
256 1 2 0 0 256 225
257 1 2 0 0 257 258
258 1 2 0 0 258 259
259 1 2 0 0 259 260
260 1 2 0 0 260 261
261 1 2 0 0 261 262
262 1 2 0 0 262 263
263 1 2 0 0 263 264
264 1 2 0 0 264 265
265 1 2 0 0 265 266
266 1 2 0 0 266 267
267 1 2 0 0 267 268
268 1 2 0 0 268 269
269 1 2 0 0 269 270
270 1 2 0 0 270 271
271 1 2 0 0 271 272
272 1 2 0 0 272 273
273 1 2 0 0 273 274
274 1 2 0 0 274 275
275 1 2 0 0 275 276
276 1 2 0 0 276 277
277 1 2 0 0 277 278
278 1 2 0 0 278 279
279 1 2 0 0 279 280
280 1 2 0 0 280 281
281 1 2 0 0 281 282
282 1 2 0 0 282 283
283 1 2 0 0 283 284
284 1 2 0 0 284 285
285 1 2 0 0 285 286
286 1 2 0 0 286 287
287 1 2 0 0 287 288
288 1 2 0 0 288 257
289 1 2 0 0 289 290
290 1 2 0 0 290 291
291 1 2 0 0 291 292
292 1 2 0 0 292 293
293 1 2 0 0 293 294
294 1 2 0 0 294 295
295 1 2 0 0 295 296
296 1 2 0 0 296 297
297 1 2 0 0 297 298
298 1 2 0 0 298 299
299 1 2 0 0 299 300
300 1 2 0 0 300 301
301 1 2 0 0 301 302
302 1 2 0 0 302 303
303 1 2 0 0 303 304
304 1 2 0 0 304 305
305 1 2 0 0 305 306
306 1 2 0 0 306 307
307 1 2 0 0 307 308
308 1 2 0 0 308 309
309 1 2 0 0 309 310
310 1 2 0 0 310 311
311 1 2 0 0 311 312
312 1 2 0 0 312 313
313 1 2 0 0 313 314
314 1 2 0 0 314 315
315 1 2 0 0 315 316
316 1 2 0 0 316 317
317 1 2 0 0 317 318
318 1 2 0 0 318 319
319 1 2 0 0 319 320
320 1 2 0 0 320 289
321 1 2 0 0 321 322
322 1 2 0 0 322 323
323 1 2 0 0 323 324
324 1 2 0 0 324 325
325 1 2 0 0 325 326
326 1 2 0 0 326 327
327 1 2 0 0 327 328
328 1 2 0 0 328 329
329 1 2 0 0 329 330
330 1 2 0 0 330 331
331 1 2 0 0 331 332
332 1 2 0 0 332 333
333 1 2 0 0 333 334
334 1 2 0 0 334 335
335 1 2 0 0 335 336
336 1 2 0 0 336 337
337 1 2 0 0 337 338
338 1 2 0 0 338 339
339 1 2 0 0 339 340
340 1 2 0 0 340 341
341 1 2 0 0 341 342
342 1 2 0 0 342 343
343 1 2 0 0 343 344
344 1 2 0 0 344 345
345 1 2 0 0 345 346
346 1 2 0 0 346 347
347 1 2 0 0 347 348
348 1 2 0 0 348 349
349 1 2 0 0 349 350
350 1 2 0 0 350 351
351 1 2 0 0 351 352
352 1 2 0 0 352 321
353 1 2 0 0 353 354
354 1 2 0 0 354 355
355 1 2 0 0 355 356
356 1 2 0 0 356 357
357 1 2 0 0 357 358
358 1 2 0 0 358 359
359 1 2 0 0 359 360
360 1 2 0 0 360 361
361 1 2 0 0 361 362
362 1 2 0 0 362 363
363 1 2 0 0 363 364
364 1 2 0 0 364 365
365 1 2 0 0 365 366
366 1 2 0 0 366 367
367 1 2 0 0 367 368
368 1 2 0 0 368 369
369 1 2 0 0 369 370
370 1 2 0 0 370 371
371 1 2 0 0 371 372
372 1 2 0 0 372 373
373 1 2 0 0 373 374
374 1 2 0 0 374 375
375 1 2 0 0 375 376
376 1 2 0 0 376 377
377 1 2 0 0 377 378
378 1 2 0 0 378 379
379 1 2 0 0 379 380
380 1 2 0 0 380 381
381 1 2 0 0 381 382
382 1 2 0 0 382 383
383 1 2 0 0 383 384
384 1 2 0 0 384 353
385 1 2 0 0 385 386
386 1 2 0 0 386 387
387 1 2 0 0 387 388
388 1 2 0 0 388 389
389 1 2 0 0 389 390
390 1 2 0 0 390 391
391 1 2 0 0 391 392
392 1 2 0 0 392 393
393 1 2 0 0 393 394
394 1 2 0 0 394 395
395 1 2 0 0 395 396
396 1 2 0 0 396 397
397 1 2 0 0 397 398
398 1 2 0 0 398 399
399 1 2 0 0 399 400
400 1 2 0 0 400 401
401 1 2 0 0 401 402
402 1 2 0 0 402 403
403 1 2 0 0 403 404
404 1 2 0 0 404 405
405 1 2 0 0 405 406
406 1 2 0 0 406 407
407 1 2 0 0 407 408
408 1 2 0 0 408 409
409 1 2 0 0 409 410
410 1 2 0 0 410 411
411 1 2 0 0 411 412
412 1 2 0 0 412 413
413 1 2 0 0 413 414
414 1 2 0 0 414 415
415 1 2 0 0 415 416
416 1 2 0 0 416 385
417 1 2 0 0 417 418
418 1 2 0 0 418 419
419 1 2 0 0 419 420
420 1 2 0 0 420 421
421 1 2 0 0 421 422
422 1 2 0 0 422 423
423 1 2 0 0 423 424
424 1 2 0 0 424 425
425 1 2 0 0 425 426
426 1 2 0 0 426 427
427 1 2 0 0 427 428
428 1 2 0 0 428 429
429 1 2 0 0 429 430
430 1 2 0 0 430 431
431 1 2 0 0 431 432
432 1 2 0 0 432 433
433 1 2 0 0 433 434
434 1 2 0 0 434 435
435 1 2 0 0 435 436
436 1 2 0 0 436 437
437 1 2 0 0 437 438
438 1 2 0 0 438 439
439 1 2 0 0 439 440
440 1 2 0 0 440 441
441 1 2 0 0 441 442
442 1 2 0 0 442 443
443 1 2 0 0 443 444
444 1 2 0 0 444 445
445 1 2 0 0 445 446
446 1 2 0 0 446 447
447 1 2 0 0 447 448
448 1 2 0 0 448 417
449 1 2 0 0 449 450
450 1 2 0 0 450 451
451 1 2 0 0 451 452
452 1 2 0 0 452 453
453 1 2 0 0 453 454
454 1 2 0 0 454 455
455 1 2 0 0 455 456
456 1 2 0 0 456 457
457 1 2 0 0 457 458
458 1 2 0 0 458 459
459 1 2 0 0 459 460
460 1 2 0 0 460 461
461 1 2 0 0 461 462
462 1 2 0 0 462 463
463 1 2 0 0 463 464
464 1 2 0 0 464 465
465 1 2 0 0 465 466
466 1 2 0 0 466 467
467 1 2 0 0 467 468
468 1 2 0 0 468 469
469 1 2 0 0 469 470
470 1 2 0 0 470 471
471 1 2 0 0 471 472
472 1 2 0 0 472 473
473 1 2 0 0 473 474
474 1 2 0 0 474 475
475 1 2 0 0 475 476
476 1 2 0 0 476 477
477 1 2 0 0 477 478
478 1 2 0 0 478 479
479 1 2 0 0 479 480
480 1 2 0 0 480 449
481 1 2 0 0 481 482
482 1 2 0 0 482 483
483 1 2 0 0 483 484
484 1 2 0 0 484 485
485 1 2 0 0 485 486
486 1 2 0 0 486 487
487 1 2 0 0 487 488
488 1 2 0 0 488 489
489 1 2 0 0 489 490
490 1 2 0 0 490 491
491 1 2 0 0 491 492
492 1 2 0 0 492 493
493 1 2 0 0 493 494
494 1 2 0 0 494 495
495 1 2 0 0 495 496
496 1 2 0 0 496 497
497 1 2 0 0 497 498
498 1 2 0 0 498 499
499 1 2 0 0 499 500
500 1 2 0 0 500 501
501 1 2 0 0 501 502
502 1 2 0 0 502 503
503 1 2 0 0 503 504
504 1 2 0 0 504 505
505 1 2 0 0 505 506
506 1 2 0 0 506 507
507 1 2 0 0 507 508
508 1 2 0 0 508 509
509 1 2 0 0 509 510
510 1 2 0 0 510 511
511 1 2 0 0 511 512
512 1 2 0 0 512 481
513 1 2 0 0 1 33
514 1 2 0 0 2 34
515 1 2 0 0 3 35
516 1 2 0 0 4 36
517 1 2 0 0 5 37
518 1 2 0 0 6 38
519 1 2 0 0 7 39
520 1 2 0 0 8 40
521 1 2 0 0 9 41
522 1 2 0 0 10 42
523 1 2 0 0 11 43
524 1 2 0 0 12 44
525 1 2 0 0 13 45
526 1 2 0 0 14 46
527 1 2 0 0 15 47
528 1 2 0 0 16 48
529 1 2 0 0 17 49
530 1 2 0 0 18 50
531 1 2 0 0 19 51
532 1 2 0 0 20 52
533 1 2 0 0 21 53
534 1 2 0 0 22 54
535 1 2 0 0 23 55
536 1 2 0 0 24 56
537 1 2 0 0 25 57
538 1 2 0 0 26 58
539 1 2 0 0 27 59
540 1 2 0 0 28 60
541 1 2 0 0 29 61
542 1 2 0 0 30 62
543 1 2 0 0 31 63
544 1 2 0 0 32 64
545 1 2 0 0 33 65
546 1 2 0 0 34 66
547 1 2 0 0 35 67
548 1 2 0 0 36 68
549 1 2 0 0 37 69
550 1 2 0 0 38 70
551 1 2 0 0 39 71
552 1 2 0 0 40 72
553 1 2 0 0 41 73
554 1 2 0 0 42 74
555 1 2 0 0 43 75
556 1 2 0 0 44 76
557 1 2 0 0 45 77
558 1 2 0 0 46 78
559 1 2 0 0 47 79
560 1 2 0 0 48 80
561 1 2 0 0 49 81
562 1 2 0 0 50 82
563 1 2 0 0 51 83
564 1 2 0 0 52 84
565 1 2 0 0 53 85
566 1 2 0 0 54 86
567 1 2 0 0 55 87
568 1 2 0 0 56 88
569 1 2 0 0 57 89
570 1 2 0 0 58 90
571 1 2 0 0 59 91
572 1 2 0 0 60 92
573 1 2 0 0 61 93
574 1 2 0 0 62 94
575 1 2 0 0 63 95
576 1 2 0 0 64 96
577 1 2 0 0 65 97
578 1 2 0 0 66 98
579 1 2 0 0 67 99
580 1 2 0 0 68 100
581 1 2 0 0 69 101
582 1 2 0 0 70 102
583 1 2 0 0 71 103
584 1 2 0 0 72 104
585 1 2 0 0 73 105
586 1 2 0 0 74 106
587 1 2 0 0 75 107
588 1 2 0 0 76 108
589 1 2 0 0 77 109
590 1 2 0 0 78 110
591 1 2 0 0 79 111
592 1 2 0 0 80 112
593 1 2 0 0 81 113
594 1 2 0 0 82 114
595 1 2 0 0 83 115
596 1 2 0 0 84 116
597 1 2 0 0 85 117
598 1 2 0 0 86 118
599 1 2 0 0 87 119
600 1 2 0 0 88 120
601 1 2 0 0 89 121
602 1 2 0 0 90 122
603 1 2 0 0 91 123
604 1 2 0 0 92 124
605 1 2 0 0 93 125
606 1 2 0 0 94 126
607 1 2 0 0 95 127
608 1 2 0 0 96 128
609 1 2 0 0 97 129
610 1 2 0 0 98 130
611 1 2 0 0 99 131
612 1 2 0 0 100 132
613 1 2 0 0 101 133
614 1 2 0 0 102 134
615 1 2 0 0 103 135
616 1 2 0 0 104 136
617 1 2 0 0 105 137
618 1 2 0 0 106 138
619 1 2 0 0 107 139
620 1 2 0 0 108 140
621 1 2 0 0 109 141
622 1 2 0 0 110 142
623 1 2 0 0 111 143
624 1 2 0 0 112 144
625 1 2 0 0 113 145
626 1 2 0 0 114 146
627 1 2 0 0 115 147
628 1 2 0 0 116 148
629 1 2 0 0 117 149
630 1 2 0 0 118 150
631 1 2 0 0 119 151
632 1 2 0 0 120 152
633 1 2 0 0 121 153
634 1 2 0 0 122 154
635 1 2 0 0 123 155
636 1 2 0 0 124 156
637 1 2 0 0 125 157
638 1 2 0 0 126 158
639 1 2 0 0 127 159
640 1 2 0 0 128 160
641 1 2 0 0 129 161
642 1 2 0 0 130 162
643 1 2 0 0 131 163
644 1 2 0 0 132 164
645 1 2 0 0 133 165
646 1 2 0 0 134 166
647 1 2 0 0 135 167
648 1 2 0 0 136 168
649 1 2 0 0 137 169
650 1 2 0 0 138 170
651 1 2 0 0 139 171
652 1 2 0 0 140 172
653 1 2 0 0 141 173
654 1 2 0 0 142 174
655 1 2 0 0 143 175
656 1 2 0 0 144 176
657 1 2 0 0 145 177
658 1 2 0 0 146 178
659 1 2 0 0 147 179
660 1 2 0 0 148 180
661 1 2 0 0 149 181
662 1 2 0 0 150 182
663 1 2 0 0 151 183
664 1 2 0 0 152 184
665 1 2 0 0 153 185
666 1 2 0 0 154 186
667 1 2 0 0 155 187
668 1 2 0 0 156 188
669 1 2 0 0 157 189
670 1 2 0 0 158 190
671 1 2 0 0 159 191
672 1 2 0 0 160 192
673 1 2 0 0 161 193
674 1 2 0 0 162 194
675 1 2 0 0 163 195
676 1 2 0 0 164 196
677 1 2 0 0 165 197
678 1 2 0 0 166 198
679 1 2 0 0 167 199
680 1 2 0 0 168 200
681 1 2 0 0 169 201
682 1 2 0 0 170 202
683 1 2 0 0 171 203
684 1 2 0 0 172 204
685 1 2 0 0 173 205
686 1 2 0 0 174 206
687 1 2 0 0 175 207
688 1 2 0 0 176 208
689 1 2 0 0 177 209
690 1 2 0 0 178 210
691 1 2 0 0 179 211
692 1 2 0 0 180 212
693 1 2 0 0 181 213
694 1 2 0 0 182 214
695 1 2 0 0 183 215
696 1 2 0 0 184 216
697 1 2 0 0 185 217
698 1 2 0 0 186 218
699 1 2 0 0 187 219
700 1 2 0 0 188 220
701 1 2 0 0 189 221
702 1 2 0 0 190 222
703 1 2 0 0 191 223
704 1 2 0 0 192 224
705 1 2 0 0 193 225
706 1 2 0 0 194 226
707 1 2 0 0 195 227
708 1 2 0 0 196 228
709 1 2 0 0 197 229
710 1 2 0 0 198 230
711 1 2 0 0 199 231
712 1 2 0 0 200 232
713 1 2 0 0 201 233
714 1 2 0 0 202 234
715 1 2 0 0 203 235
716 1 2 0 0 204 236
717 1 2 0 0 205 237
718 1 2 0 0 206 238
719 1 2 0 0 207 239
720 1 2 0 0 208 240
721 1 2 0 0 209 241
722 1 2 0 0 210 242
723 1 2 0 0 211 243
724 1 2 0 0 212 244
725 1 2 0 0 213 245
726 1 2 0 0 214 246
727 1 2 0 0 215 247
728 1 2 0 0 216 248
729 1 2 0 0 217 249
730 1 2 0 0 218 250
731 1 2 0 0 219 251
732 1 2 0 0 220 252
733 1 2 0 0 221 253
734 1 2 0 0 222 254
735 1 2 0 0 223 255
736 1 2 0 0 224 256
737 1 2 0 0 225 257
738 1 2 0 0 226 258
739 1 2 0 0 227 259
740 1 2 0 0 228 260
741 1 2 0 0 229 261
742 1 2 0 0 230 262
743 1 2 0 0 231 263
744 1 2 0 0 232 264
745 1 2 0 0 233 265
746 1 2 0 0 234 266
747 1 2 0 0 235 267
748 1 2 0 0 236 268
749 1 2 0 0 237 269
750 1 2 0 0 238 270
751 1 2 0 0 239 271
752 1 2 0 0 240 272
753 1 2 0 0 241 273
754 1 2 0 0 242 274
755 1 2 0 0 243 275
756 1 2 0 0 244 276
757 1 2 0 0 245 277
758 1 2 0 0 246 278
759 1 2 0 0 247 279
760 1 2 0 0 248 280
761 1 2 0 0 249 281
762 1 2 0 0 250 282
763 1 2 0 0 251 283
764 1 2 0 0 252 284
765 1 2 0 0 253 285
766 1 2 0 0 254 286
767 1 2 0 0 255 287
768 1 2 0 0 256 288
769 1 2 0 0 257 289
770 1 2 0 0 258 290
771 1 2 0 0 259 291
772 1 2 0 0 260 292
773 1 2 0 0 261 293
774 1 2 0 0 262 294
775 1 2 0 0 263 295
776 1 2 0 0 264 296
777 1 2 0 0 265 297
778 1 2 0 0 266 298
779 1 2 0 0 267 299
780 1 2 0 0 268 300
781 1 2 0 0 269 301
782 1 2 0 0 270 302
783 1 2 0 0 271 303
784 1 2 0 0 272 304
785 1 2 0 0 273 305
786 1 2 0 0 274 306
787 1 2 0 0 275 307
788 1 2 0 0 276 308
789 1 2 0 0 277 309
790 1 2 0 0 278 310
791 1 2 0 0 279 311
792 1 2 0 0 280 312
793 1 2 0 0 281 313
794 1 2 0 0 282 314
795 1 2 0 0 283 315
796 1 2 0 0 284 316
797 1 2 0 0 285 317
798 1 2 0 0 286 318
799 1 2 0 0 287 319
800 1 2 0 0 288 320
801 1 2 0 0 289 321
802 1 2 0 0 290 322
803 1 2 0 0 291 323
804 1 2 0 0 292 324
805 1 2 0 0 293 325
806 1 2 0 0 294 326
807 1 2 0 0 295 327
808 1 2 0 0 296 328
809 1 2 0 0 297 329
810 1 2 0 0 298 330
811 1 2 0 0 299 331
812 1 2 0 0 300 332
813 1 2 0 0 301 333
814 1 2 0 0 302 334
815 1 2 0 0 303 335
816 1 2 0 0 304 336
817 1 2 0 0 305 337
818 1 2 0 0 306 338
819 1 2 0 0 307 339
820 1 2 0 0 308 340
821 1 2 0 0 309 341
822 1 2 0 0 310 342
823 1 2 0 0 311 343
824 1 2 0 0 312 344
825 1 2 0 0 313 345
826 1 2 0 0 314 346
827 1 2 0 0 315 347
828 1 2 0 0 316 348
829 1 2 0 0 317 349
830 1 2 0 0 318 350
831 1 2 0 0 319 351
832 1 2 0 0 320 352
833 1 2 0 0 321 353
834 1 2 0 0 322 354
835 1 2 0 0 323 355
836 1 2 0 0 324 356
837 1 2 0 0 325 357
838 1 2 0 0 326 358
839 1 2 0 0 327 359
840 1 2 0 0 328 360
841 1 2 0 0 329 361
842 1 2 0 0 330 362
843 1 2 0 0 331 363
844 1 2 0 0 332 364
845 1 2 0 0 333 365
846 1 2 0 0 334 366
847 1 2 0 0 335 367
848 1 2 0 0 336 368
849 1 2 0 0 337 369
850 1 2 0 0 338 370
851 1 2 0 0 339 371
852 1 2 0 0 340 372
853 1 2 0 0 341 373
854 1 2 0 0 342 374
855 1 2 0 0 343 375
856 1 2 0 0 344 376
857 1 2 0 0 345 377
858 1 2 0 0 346 378
859 1 2 0 0 347 379
860 1 2 0 0 348 380
861 1 2 0 0 349 381
862 1 2 0 0 350 382
863 1 2 0 0 351 383
864 1 2 0 0 352 384
865 1 2 0 0 353 385
866 1 2 0 0 354 386
867 1 2 0 0 355 387
868 1 2 0 0 356 388
869 1 2 0 0 357 389
870 1 2 0 0 358 390
871 1 2 0 0 359 391
872 1 2 0 0 360 392
873 1 2 0 0 361 393
874 1 2 0 0 362 394
875 1 2 0 0 363 395
876 1 2 0 0 364 396
877 1 2 0 0 365 397
878 1 2 0 0 366 398
879 1 2 0 0 367 399
880 1 2 0 0 368 400
881 1 2 0 0 369 401
882 1 2 0 0 370 402
883 1 2 0 0 371 403
884 1 2 0 0 372 404
885 1 2 0 0 373 405
886 1 2 0 0 374 406
887 1 2 0 0 375 407
888 1 2 0 0 376 408
889 1 2 0 0 377 409
890 1 2 0 0 378 410
891 1 2 0 0 379 411
892 1 2 0 0 380 412
893 1 2 0 0 381 413
894 1 2 0 0 382 414
895 1 2 0 0 383 415
896 1 2 0 0 384 416
897 1 2 0 0 385 417
898 1 2 0 0 386 418
899 1 2 0 0 387 419
900 1 2 0 0 388 420
901 1 2 0 0 389 421
902 1 2 0 0 390 422
903 1 2 0 0 391 423
904 1 2 0 0 392 424
905 1 2 0 0 393 425
906 1 2 0 0 394 426
907 1 2 0 0 395 427
908 1 2 0 0 396 428
909 1 2 0 0 397 429
910 1 2 0 0 398 430
911 1 2 0 0 399 431
912 1 2 0 0 400 432
913 1 2 0 0 401 433
914 1 2 0 0 402 434
915 1 2 0 0 403 435
916 1 2 0 0 404 436
917 1 2 0 0 405 437
918 1 2 0 0 406 438
919 1 2 0 0 407 439
920 1 2 0 0 408 440
921 1 2 0 0 409 441
922 1 2 0 0 410 442
923 1 2 0 0 411 443
924 1 2 0 0 412 444
925 1 2 0 0 413 445
926 1 2 0 0 414 446
927 1 2 0 0 415 447
928 1 2 0 0 416 448
929 1 2 0 0 417 449
930 1 2 0 0 418 450
931 1 2 0 0 419 451
932 1 2 0 0 420 452
933 1 2 0 0 421 453
934 1 2 0 0 422 454
935 1 2 0 0 423 455
936 1 2 0 0 424 456
937 1 2 0 0 425 457
938 1 2 0 0 426 458
939 1 2 0 0 427 459
940 1 2 0 0 428 460
941 1 2 0 0 429 461
942 1 2 0 0 430 462
943 1 2 0 0 431 463
944 1 2 0 0 432 464
945 1 2 0 0 433 465
946 1 2 0 0 434 466
947 1 2 0 0 435 467
948 1 2 0 0 436 468
949 1 2 0 0 437 469
950 1 2 0 0 438 470
951 1 2 0 0 439 471
952 1 2 0 0 440 472
953 1 2 0 0 441 473
954 1 2 0 0 442 474
955 1 2 0 0 443 475
956 1 2 0 0 444 476
957 1 2 0 0 445 477
958 1 2 0 0 446 478
959 1 2 0 0 447 479
960 1 2 0 0 448 480
961 1 2 0 0 449 481
962 1 2 0 0 450 482
963 1 2 0 0 451 483
964 1 2 0 0 452 484
965 1 2 0 0 453 485
966 1 2 0 0 454 486
967 1 2 0 0 455 487
968 1 2 0 0 456 488
969 1 2 0 0 457 489
970 1 2 0 0 458 490
971 1 2 0 0 459 491
972 1 2 0 0 460 492
973 1 2 0 0 461 493
974 1 2 0 0 462 494
975 1 2 0 0 463 495
976 1 2 0 0 464 496
977 1 2 0 0 465 497
978 1 2 0 0 466 498
979 1 2 0 0 467 499
980 1 2 0 0 468 500
981 1 2 0 0 469 501
982 1 2 0 0 470 502
983 1 2 0 0 471 503
984 1 2 0 0 472 504
985 1 2 0 0 473 505
986 1 2 0 0 474 506
987 1 2 0 0 475 507
988 1 2 0 0 476 508
989 1 2 0 0 477 509
990 1 2 0 0 478 510
991 1 2 0 0 479 511
992 1 2 0 0 480 512
$EndElements
