32 2 0 1
0 2.15000000e+00 0.00000000e+00 1
1 2.13294224e+00 1.81281328e-01 1
2 2.08356212e+00 3.48664329e-01 1
3 2.00689939e+00 4.90245582e-01 1
4 1.91031797e+00 5.97645155e-01 1
5 1.80225427e+00 6.66756725e-01 1
6 1.69095162e+00 6.97648200e-01 1
7 1.58345203e+00 6.93772211e-01 1
8 1.48500000e+00 6.60786652e-01 1
9 1.39887832e+00 6.05308420e-01 1
10 1.32659162e+00 5.33851811e-01 1
11 1.26826312e+00 4.52087195e-01 1
12 1.22311060e+00 3.64445152e-01 1
13 1.18990061e+00 2.74016002e-01 1
14 1.16732320e+00 1.82661693e-01 1
15 1.15426715e+00 9.12574818e-02 1
16 1.15000000e+00 8.57252759e-17 1
17 1.15426715e+00 -9.12574818e-02 1
18 1.16732320e+00 -1.82661693e-01 1
19 1.18990061e+00 -2.74016002e-01 1
20 1.22311060e+00 -3.64445152e-01 1
21 1.26826312e+00 -4.52087195e-01 1
22 1.32659162e+00 -5.33851811e-01 1
23 1.39887832e+00 -6.05308420e-01 1
24 1.48500000e+00 -6.60786652e-01 1
25 1.58345203e+00 -6.93772211e-01 1
26 1.69095162e+00 -6.97648200e-01 1
27 1.80225427e+00 -6.66756725e-01 1
28 1.91031797e+00 -5.97645155e-01 1
29 2.00689939e+00 -4.90245582e-01 1
30 2.08356212e+00 -3.48664329e-01 1
31 2.13294224e+00 -1.81281328e-01 1
32 1
0 0 1 1
1 1 2 1
2 2 3 1
3 3 4 1
4 4 5 1
5 5 6 1
6 6 7 1
7 7 8 1
8 8 9 1
9 9 10 1
10 10 11 1
11 11 12 1
12 12 13 1
13 13 14 1
14 14 15 1
15 15 16 1
16 16 17 1
17 17 18 1
18 18 19 1
19 19 20 1
20 20 21 1
21 21 22 1
22 22 23 1
23 23 24 1
24 24 25 1
25 25 26 1
26 26 27 1
27 27 28 1
28 28 29 1
29 29 30 1
30 30 31 1
31 31 0 1
0
